<svg xmlns="http://www.w3.org/2000/svg" width="77.735" height="32.245" viewBox="0 0 77.735 32.245">
  <g id="Group_4070" data-name="Group 4070" transform="translate(0 0)">
    <path id="Path_6389" data-name="Path 6389" d="M295.745,329.71h4.99l.3,1.744c.335-.294.643-.6.986-.859a5.535,5.535,0,0,1,6.056-.639,5.067,5.067,0,0,1,2.417,2.719,10.968,10.968,0,0,1,.823,3.392,19.928,19.928,0,0,1,0,4.038,10.182,10.182,0,0,1-1.767,5.144,6.4,6.4,0,0,1-4.356,2.575,8.272,8.272,0,0,1-3.554-.256c-.059-.017-.118-.031-.2-.053v5.719l-5.69.94Zm5.688,9.339v3.8c0,.518,0,.528.495.667a2.351,2.351,0,0,0,3.045-1.217,5.509,5.509,0,0,0,.555-1.61,13.6,13.6,0,0,0,.076-4.331,4.259,4.259,0,0,0-.632-1.878,1.586,1.586,0,0,0-1.668-.738,3.3,3.3,0,0,0-1.728.945.422.422,0,0,0-.145.34C301.435,336.365,301.433,337.707,301.433,339.049Z" transform="translate(-249.998 -321.931)" fill="#6772e5"/>
    <path id="Path_6390" data-name="Path 6390" d="M408.533,340.546h-9.4a2.935,2.935,0,0,0,2.653,3.154,9.963,9.963,0,0,0,5.388-.992l.257-.127c.083.509.165,1,.243,1.5.117.74.224,1.482.354,2.22a.249.249,0,0,1-.15.3,9.169,9.169,0,0,1-2.882,1.083,13.411,13.411,0,0,1-5.675.047,6.806,6.806,0,0,1-5.395-5.128,14.416,14.416,0,0,1-.43-5.072,10.611,10.611,0,0,1,.969-3.857,6.965,6.965,0,0,1,5.664-4.143,7.927,7.927,0,0,1,4.4.571,6.252,6.252,0,0,1,3.152,3.345,11.223,11.223,0,0,1,.855,3.552A24.625,24.625,0,0,1,408.533,340.546Zm-5.285-3.5c-.026-.326-.041-.636-.076-.942a5.03,5.03,0,0,0-.513-1.876,1.578,1.578,0,0,0-1.439-.91,1.615,1.615,0,0,0-1.489.868,6.639,6.639,0,0,0-.68,2.859Z" transform="translate(-330.864 -322.021)" fill="#6772e5"/>
    <path id="Path_6391" data-name="Path 6391" d="M41.835,334.919c-.578-.229-1.133-.469-1.7-.67a8.538,8.538,0,0,0-3.111-.553,2.366,2.366,0,0,0-.763.145.884.884,0,0,0-.363,1.451,2.663,2.663,0,0,0,1.051.712c.722.3,1.456.578,2.182.872a9.864,9.864,0,0,1,2.366,1.289,4.613,4.613,0,0,1,1.841,3.605,6.357,6.357,0,0,1-.523,3.08,5.157,5.157,0,0,1-3.19,2.717,10.006,10.006,0,0,1-3.79.443,14.174,14.174,0,0,1-5.127-1.221c-.606-.274-.6-.273-.492-.922.191-1.153.373-2.307.559-3.461.011-.066.025-.131.028-.145.815.33,1.613.683,2.432.976a8.719,8.719,0,0,0,2.82.568,3.691,3.691,0,0,0,1.176-.155,1.078,1.078,0,0,0,.354-1.913,5.587,5.587,0,0,0-1.589-.859c-.887-.369-1.785-.718-2.659-1.117a5.656,5.656,0,0,1-1.7-1.219,4.452,4.452,0,0,1-1.247-2.786,5.821,5.821,0,0,1,.609-3.421,5.262,5.262,0,0,1,3.213-2.486,9.534,9.534,0,0,1,3.43-.352,13.42,13.42,0,0,1,4.676,1.092.255.255,0,0,1,.181.337c-.222,1.3-.428,2.6-.64,3.908C41.848,334.861,41.842,334.888,41.835,334.919Z" transform="translate(-30.158 -322.044)" fill="#6772e5"/>
    <path id="Path_6392" data-name="Path 6392" d="M110.825,311.086h-2.354l.644-3.949c.519-.085,1.026-.174,1.536-.247a.212.212,0,0,0,.215-.213c.21-1.317.43-2.632.639-3.949a.228.228,0,0,1,.228-.227c1.555-.249,3.108-.508,4.692-.769v5.114h3.652l-.691,4.245h-2.954v.246c0,2.375,0,4.749.005,7.124a4.243,4.243,0,0,0,.119.978,1.207,1.207,0,0,0,1.114.951,5.593,5.593,0,0,0,1.858-.184c.047-.01.093-.017.156-.028,0,.07.011.129.011.189q0,2.044,0,4.089c0,.1.014.194-.132.232a10.517,10.517,0,0,1-5.428.061,4.1,4.1,0,0,1-3.113-3.431,10.146,10.146,0,0,1-.188-1.883c-.02-2.684-.008-5.369-.008-8.053Z" transform="translate(-94.982 -299.079)" fill="#6772e5"/>
    <path id="Path_6393" data-name="Path 6393" d="M184.59,330.346h.215c1.515,0,3.03,0,4.545,0,.172,0,.233.04.258.22.083.6.192,1.193.295,1.818a.655.655,0,0,0,.066-.1,3.309,3.309,0,0,1,3.108-2.162,8.911,8.911,0,0,1,1.167.09c.111.009.149.057.149.171q-.006,2.529,0,5.058a.258.258,0,0,1-.015.053c-.2-.015-.4-.038-.6-.045a5.444,5.444,0,0,0-2.37.332,2.728,2.728,0,0,0-1.024.748.494.494,0,0,0-.092.3q-.008,2.829,0,5.657V348.2H184.59Z" transform="translate(-157.989 -322.575)" fill="#6772e5"/>
    <path id="Path_6394" data-name="Path 6394" d="M255.183,349.358h-5.712V331.513h5.712Z" transform="translate(-211.695 -323.73)" fill="#6772e5"/>
    <path id="Path_6395" data-name="Path 6395" d="M248.644,289.325a3,3,0,1,1,2.981,3.028A2.981,2.981,0,0,1,248.644,289.325Z" transform="translate(-211.01 -286.33)" fill="#6772e5"/>
  </g>
</svg>
