<svg xmlns="http://www.w3.org/2000/svg" width="43.756" height="35.035" viewBox="0 0 43.756 35.035">
  <g id="Group_891" data-name="Group 891" transform="translate(-214.495 -354.822)">
    <path id="Path_2495" data-name="Path 2495" d="M222.751,364.3c-.362-2.055-.36-2.051,1.378-2.721,5.714-2.2,11.42-4.43,17.153-6.584a3.169,3.169,0,0,1,2.054-.011c5.733,2.155,11.438,4.384,17.152,6.59,1.747.675,1.747.673,1.4,2.726Zm21.265-4.459a1.614,1.614,0,0,0-1.655-1.629,1.6,1.6,0,1,0-.051,3.2A1.591,1.591,0,0,0,244.016,359.845Z" transform="translate(-5.968 0)" fill="#2e58a6"/>
    <path id="Path_2496" data-name="Path 2496" d="M259.979,397.688H218.248v-3.2h41.731Z" transform="translate(-2.777 -29.351)" fill="#2e58a6"/>
    <path id="Path_2497" data-name="Path 2497" d="M232.982,426.735l1.261.119v1.2h-7.3c-.312-1.155-.312-1.155,1.039-1.364v-15.44c-.659-.135-1.675-.07-1.081-1.366h7.349v1.12l-1.271.276Z" transform="translate(-9.049 -40.746)" fill="#2e58a6"/>
    <path id="Path_2498" data-name="Path 2498" d="M264.907,426.9l1.278-.129V411.3l-1.208-.22v-1.137h7.431v1.1l-1.192.266v15.4l1.2.216.064,1.153h-7.5Z" transform="translate(-37.301 -40.785)" fill="#2e58a6"/>
    <path id="Path_2499" data-name="Path 2499" d="M349.36,411.061l-1.3.179V426.7l1.2.193v1.156h-7.433l-.072-1.093,1.288-.276V411.268c-.684-.132-1.7-.072-1.113-1.368h7.316Z" transform="translate(-94.162 -40.753)" fill="#2e58a6"/>
    <path id="Path_2500" data-name="Path 2500" d="M304.474,411.014l-1.252-.154c-.126-.648-.368-1.264.66-1.261,2.2.007,4.4,0,6.6,0,.605,1.238-.185,1.354-1.066,1.415v15.321c1.248.438,1.248.438,1.214,1.475H303.2l-.089-1.131,1.363-.2Z" transform="translate(-65.563 -40.531)" fill="#2e58a6"/>
    <path id="Path_2501" data-name="Path 2501" d="M214.495,484.8v-1.665h43.756V484.8Z" transform="translate(0 -94.94)" fill="#2e58a6"/>
  </g>
</svg>
