<svg xmlns="http://www.w3.org/2000/svg" width="39.807" height="46.435" viewBox="0 0 39.807 46.435">
  <g id="Group_4071" data-name="Group 4071" transform="translate(0 0)">
    <path id="Path_6396" data-name="Path 6396" d="M261.288,314.615c3.579.266,6.831,1.2,9.019,4.355a8.627,8.627,0,0,1,1.268,6.792l-.142.389a15.487,15.487,0,0,0-5.827-1.37c-4.267-.1-8.539-.007-12.808-.044a1.986,1.986,0,0,0-2.158,1.792c-.816,4.861-1.536,9.739-2.29,14.61-.473,2.79-.913,5.586-1.431,8.368-.368,1.979-.389,4.028-1.147,5.932-.291-.336-.687-.245-1.052-.245q-4.291,0-8.583.019c-.824-.671-.3-1.516-.187-2.226,1.926-12.208,3.9-24.408,5.853-36.612a1.87,1.87,0,0,1,.546-1.238l.323-.28-.008,0q8.419,0,16.837,0A3.52,3.52,0,0,0,261.288,314.615Z" transform="translate(-235.684 -314.389)" fill="#193085"/>
    <path id="Path_6397" data-name="Path 6397" d="M274.483,354.518l.142-.389c.1.206.156.5.323.6,3.321,1.986,3.888,5.147,3.475,8.572-.587,4.869-2.421,9.068-7.131,11.383a17.388,17.388,0,0,1-8.067,1.564c-2.1-.03-2.524.328-2.876,2.4-.47,2.77-.913,5.544-1.346,8.32-.256,1.64-.848,2.2-2.5,2.217-2.161.017-4.323,0-6.484.005-1.163,0-1.809-.431-1.514-1.716.052-.227.032-.468.065-.7.385-2.737.385-2.725-2.311-2.741-2.108-.013-4.217-.062-6.326-.1l8.891-.129c.758-1.9.778-3.952,1.147-5.932.517-2.782.958-5.578,1.431-8.368a2.955,2.955,0,0,1,2.519-.96,43.023,43.023,0,0,0,8.417-.467C269.5,366.81,273.749,361.544,274.483,354.518Z" transform="translate(-238.733 -342.755)" fill="#1c96c3"/>
    <path id="Path_6398" data-name="Path 6398" d="M279.052,314.04a3.52,3.52,0,0,1-1.785.245q-8.419,0-16.837,0a1.512,1.512,0,0,1,1.264-.473q8.268.022,16.535.084A5,5,0,0,1,279.052,314.04Z" transform="translate(-253.448 -313.814)" fill="#404a93"/>
    <path id="Path_6399" data-name="Path 6399" d="M246.93,458.668l-8.891.129c-.276-.058-.6-.015-.744-.355q4.292-.011,8.583-.019C246.243,458.423,246.639,458.332,246.93,458.668Z" transform="translate(-236.841 -417.617)" fill="#192281"/>
    <path id="Path_6400" data-name="Path 6400" d="M259.637,315.475l-.323.28Z" transform="translate(-252.647 -315.006)" fill="#404a93"/>
    <path id="Path_6401" data-name="Path 6401" d="M303.663,351.9c-.734,7.025-4.987,12.292-12.147,13.561a43.028,43.028,0,0,1-8.417.467,2.955,2.955,0,0,0-2.519.96c.754-4.871,1.474-9.749,2.29-14.61a1.986,1.986,0,0,1,2.158-1.792c4.269.038,8.54-.054,12.808.044A15.488,15.488,0,0,1,303.663,351.9Z" transform="translate(-267.914 -340.14)" fill="#19226b"/>
  </g>
</svg>
