<svg xmlns="http://www.w3.org/2000/svg" width="25" height="35.004" viewBox="0 0 25 35.004">
  <path id="Subtraction_2" data-name="Subtraction 2" d="M-6303.687-1248h0l-3.155-2.546L-6310-1248v-35l3.158,2.545,3.155-2.545h0l3.157,2.546,3.156-2.545h0l3.158,2.546,3.157-2.545,3.156,2.545,2.9-2.342v34.595l-2.9-2.342-3.156,2.545-3.157-2.545-3.157,2.546-3.157-2.546-3.156,2.546Zm-3.536-9.683v1.489h18.52v-1.489Zm0-6.7v1.489h15.741v-1.489Zm0-5.958v1.49h5.556v-1.49Zm0-5.213v1.49h17.593v-1.49Z" transform="translate(6310 1283)" fill="#2e58a6"/>
</svg>
